<mxfile host="app.diagrams.net" modified="2022-11-09T07:26:40.490Z" agent="5.0 (Windows NT 10.0; Win64; x64) AppleWebKit/537.36 (KHTML, like Gecko) Chrome/106.0.0.0 Safari/537.36" etag="yku5mrpToPuN2kYm3OZQ" version="20.5.3" type="github">
  <diagram id="wFE0QG_FPsp0jaGvCLVb" name="Page-1">
    <mxGraphModel dx="1953" dy="1146" grid="1" gridSize="10" guides="1" tooltips="1" connect="1" arrows="1" fold="1" page="1" pageScale="1" pageWidth="850" pageHeight="1100" math="0" shadow="0">
      <root>
        <mxCell id="0" />
        <mxCell id="1" parent="0" />
        <mxCell id="nh4YquugCIlrs4ZJ5E3S-2" value="VOID SORT(CALLBACK_ROUTINE *Cb){" style="swimlane;fontStyle=1;childLayout=stackLayout;horizontal=1;startSize=40;fillColor=#1ba1e2;horizontalStack=0;resizeParent=1;resizeParentMax=0;resizeLast=0;collapsible=0;marginBottom=0;swimlaneFillColor=#ffffff;strokeWidth=2;glass=0;swimlaneLine=0;shadow=1;strokeColor=#006EAF;align=left;fontSize=13;fillStyle=auto;fontColor=#ffffff;" vertex="1" parent="1">
          <mxGeometry x="235" y="20" width="330" height="140" as="geometry" />
        </mxCell>
        <mxCell id="nh4YquugCIlrs4ZJ5E3S-3" value="&lt;div style=&quot;line-height: 19px; font-size: 15px;&quot;&gt;&lt;div style=&quot;&quot;&gt;&lt;font style=&quot;font-size: 15px;&quot; face=&quot;Courier New&quot;&gt;&lt;span style=&quot;background-color: initial;&quot;&gt;&amp;nbsp; &amp;nbsp;&lt;b style=&quot;&quot;&gt; if(IsValidTarget(Cb) == FALSE){&lt;/b&gt;&lt;/span&gt;&lt;b style=&quot;&quot;&gt;&lt;br&gt;&lt;/b&gt;&lt;/font&gt;&lt;/div&gt;&lt;div style=&quot;&quot;&gt;&lt;b&gt;&lt;font style=&quot;font-size: 15px;&quot; face=&quot;Courier New&quot;&gt;&amp;nbsp; &amp;nbsp; &amp;nbsp; &amp;nbsp; TerminateProcess();&lt;/font&gt;&lt;/b&gt;&lt;/div&gt;&lt;div style=&quot;&quot;&gt;&lt;b&gt;&lt;font style=&quot;font-size: 15px;&quot; face=&quot;Courier New&quot;&gt;&amp;nbsp; &amp;nbsp; }&lt;/font&gt;&lt;/b&gt;&lt;/div&gt;&lt;div style=&quot;&quot;&gt;&lt;b&gt;&lt;font style=&quot;font-size: 15px;&quot; face=&quot;Courier New&quot;&gt;&amp;nbsp; &amp;nbsp; Cb();&lt;/font&gt;&lt;/b&gt;&lt;/div&gt;&lt;div style=&quot;&quot;&gt;&lt;b style=&quot;&quot;&gt;&lt;font face=&quot;Courier New&quot; style=&quot;font-size: 15px;&quot;&gt;}&lt;/font&gt;&lt;/b&gt;&lt;/div&gt;&lt;/div&gt;" style="whiteSpace=wrap;html=1;shadow=1;glass=0;strokeWidth=2;strokeColor=none;align=left;sketch=1;rounded=0;" vertex="1" parent="nh4YquugCIlrs4ZJ5E3S-2">
          <mxGeometry y="40" width="330" height="100" as="geometry" />
        </mxCell>
        <mxCell id="nh4YquugCIlrs4ZJ5E3S-5" value="&lt;div style=&quot;line-height: 19px;&quot;&gt;&lt;font face=&quot;Courier New&quot; style=&quot;font-size: 16px;&quot;&gt;&lt;b&gt;SORT(ValidCallback);&lt;/b&gt;&lt;/font&gt;&lt;/div&gt;" style="rounded=0;arcSize=10;whiteSpace=wrap;html=1;align=center;shadow=1;glass=0;labelBackgroundColor=none;sketch=0;fillStyle=solid;strokeWidth=2;fontSize=15;fillColor=#dae8fc;strokeColor=#6c8ebf;" vertex="1" parent="1">
          <mxGeometry x="98" y="231" width="282" height="67" as="geometry" />
        </mxCell>
        <mxCell id="nh4YquugCIlrs4ZJ5E3S-6" value="&lt;div style=&quot;line-height: 19px; font-size: 16px;&quot;&gt;&lt;div style=&quot;line-height: 19px;&quot;&gt;&lt;font face=&quot;Courier New&quot;&gt;&lt;b&gt;IsValidTarget(&lt;span style=&quot;font-size: 16px;&quot;&gt;ValidCallback&lt;/span&gt;)&amp;nbsp;&lt;/b&gt;&lt;/font&gt;&lt;/div&gt;&lt;div style=&quot;line-height: 19px;&quot;&gt;&lt;font face=&quot;Courier New&quot;&gt;&lt;b&gt;return &lt;font color=&quot;#67ab9f&quot;&gt;TRUE&lt;/font&gt;&lt;/b&gt;&lt;/font&gt;&lt;/div&gt;&lt;/div&gt;" style="rounded=0;arcSize=10;whiteSpace=wrap;html=1;align=center;shadow=1;glass=0;labelBackgroundColor=none;sketch=0;fillStyle=solid;strokeWidth=2;fontSize=15;fillColor=#dae8fc;strokeColor=#6c8ebf;" vertex="1" parent="1">
          <mxGeometry x="98" y="353" width="282" height="67" as="geometry" />
        </mxCell>
        <mxCell id="nh4YquugCIlrs4ZJ5E3S-7" value="&lt;div style=&quot;line-height: 19px;&quot;&gt;&lt;font face=&quot;Courier New&quot; style=&quot;font-size: 16px;&quot;&gt;&amp;nbsp; &amp;nbsp; &amp;nbsp; ValidCallback被调用&amp;nbsp; &amp;nbsp; &amp;nbsp; &amp;nbsp; &amp;nbsp;程序继续执行&lt;/font&gt;&lt;/div&gt;" style="rounded=0;arcSize=10;whiteSpace=wrap;html=1;align=center;shadow=1;glass=0;labelBackgroundColor=none;sketch=0;fillStyle=solid;strokeWidth=2;fontSize=15;fillColor=#d5e8d4;strokeColor=#82b366;fontStyle=1" vertex="1" parent="1">
          <mxGeometry x="98" y="472" width="282" height="67" as="geometry" />
        </mxCell>
        <mxCell id="nh4YquugCIlrs4ZJ5E3S-10" value="" style="html=1;shadow=0;dashed=0;align=center;verticalAlign=middle;shape=mxgraph.arrows2.arrow;dy=0.67;dx=20;notch=0;rounded=0;glass=0;labelBackgroundColor=none;sketch=0;fillStyle=solid;strokeWidth=2;fontSize=16;fillColor=#dae8fc;rotation=90;strokeColor=#6c8ebf;" vertex="1" parent="1">
          <mxGeometry x="208" y="306" width="40" height="40" as="geometry" />
        </mxCell>
        <mxCell id="nh4YquugCIlrs4ZJ5E3S-13" value="" style="html=1;shadow=0;dashed=0;align=center;verticalAlign=middle;shape=mxgraph.arrows2.arrow;dy=0.67;dx=20;notch=0;rounded=0;glass=0;labelBackgroundColor=none;sketch=0;fillStyle=solid;strokeWidth=2;fontSize=16;fillColor=#dae8fc;rotation=90;strokeColor=#6c8ebf;" vertex="1" parent="1">
          <mxGeometry x="208" y="427" width="40" height="40" as="geometry" />
        </mxCell>
        <mxCell id="nh4YquugCIlrs4ZJ5E3S-14" value="" style="html=1;shadow=0;dashed=0;align=center;verticalAlign=middle;shape=mxgraph.arrows2.arrow;dy=0.67;dx=20;notch=0;rounded=0;glass=0;labelBackgroundColor=none;sketch=0;fillStyle=solid;strokeWidth=2;fontSize=16;fillColor=#dae8fc;rotation=45;direction=south;strokeColor=#6c8ebf;" vertex="1" parent="1">
          <mxGeometry x="218.54" y="168.53" width="48.96" height="57.5" as="geometry" />
        </mxCell>
        <mxCell id="nh4YquugCIlrs4ZJ5E3S-15" value="&lt;div style=&quot;line-height: 19px;&quot;&gt;&lt;font face=&quot;Courier New&quot; style=&quot;font-size: 16px;&quot;&gt;SORT(&lt;font style=&quot;&quot; color=&quot;#ff3333&quot;&gt;0x41414141&lt;/font&gt;);&lt;/font&gt;&lt;/div&gt;" style="rounded=0;arcSize=10;whiteSpace=wrap;html=1;align=center;shadow=1;glass=0;labelBackgroundColor=none;sketch=0;fillStyle=solid;strokeWidth=2;fontSize=15;fillColor=#dae8fc;strokeColor=#6c8ebf;fontStyle=1" vertex="1" parent="1">
          <mxGeometry x="451" y="231" width="282" height="67" as="geometry" />
        </mxCell>
        <mxCell id="nh4YquugCIlrs4ZJ5E3S-16" value="&lt;div style=&quot;line-height: 19px;&quot;&gt;&lt;div style=&quot;font-size: 16px; line-height: 19px;&quot;&gt;&lt;font face=&quot;Courier New&quot;&gt;IsValidTarget(&lt;span style=&quot;color: rgb(255, 51, 51);&quot;&gt;0x41414141&lt;/span&gt;)&amp;nbsp;&lt;/font&gt;&lt;/div&gt;&lt;div style=&quot;font-size: 16px; line-height: 19px;&quot;&gt;&lt;font face=&quot;Courier New&quot;&gt;return &lt;font style=&quot;&quot; color=&quot;#ff3333&quot;&gt;FALSE&lt;/font&gt;&lt;/font&gt;&lt;/div&gt;&lt;/div&gt;" style="rounded=0;arcSize=10;whiteSpace=wrap;html=1;align=center;shadow=1;glass=0;labelBackgroundColor=none;sketch=0;fillStyle=solid;strokeWidth=2;fontSize=15;fillColor=#dae8fc;strokeColor=#6c8ebf;fontStyle=1" vertex="1" parent="1">
          <mxGeometry x="451" y="353" width="282" height="67" as="geometry" />
        </mxCell>
        <mxCell id="nh4YquugCIlrs4ZJ5E3S-18" value="&lt;div style=&quot;line-height: 19px;&quot;&gt;&lt;span style=&quot;color: rgb(255, 51, 51); font-size: 16px;&quot;&gt;&lt;font face=&quot;Courier New&quot;&gt;&amp;nbsp; &amp;nbsp; &amp;nbsp;0x41414141没有调用&amp;nbsp; &amp;nbsp; &amp;nbsp; &amp;nbsp; 程序终止&lt;/font&gt;&lt;/span&gt;&lt;/div&gt;" style="rounded=0;arcSize=10;whiteSpace=wrap;html=1;align=center;shadow=1;glass=0;labelBackgroundColor=none;sketch=0;fillStyle=solid;strokeWidth=2;fontSize=15;fillColor=#d5e8d4;strokeColor=#82b366;fontStyle=1" vertex="1" parent="1">
          <mxGeometry x="451" y="472" width="282" height="67" as="geometry" />
        </mxCell>
        <mxCell id="nh4YquugCIlrs4ZJ5E3S-19" value="" style="html=1;shadow=0;dashed=0;align=center;verticalAlign=middle;shape=mxgraph.arrows2.arrow;dy=0.67;dx=20;notch=0;rounded=0;glass=0;labelBackgroundColor=none;sketch=0;fillStyle=solid;strokeWidth=2;fontSize=16;fillColor=#dae8fc;rotation=-45;direction=south;strokeColor=#6c8ebf;" vertex="1" parent="1">
          <mxGeometry x="530" y="168.53" width="48.96" height="57.5" as="geometry" />
        </mxCell>
        <mxCell id="nh4YquugCIlrs4ZJ5E3S-21" value="" style="html=1;shadow=0;dashed=0;align=center;verticalAlign=middle;shape=mxgraph.arrows2.arrow;dy=0.67;dx=20;notch=0;rounded=0;glass=0;labelBackgroundColor=none;sketch=0;fillStyle=solid;strokeWidth=2;fontSize=16;fillColor=#dae8fc;rotation=90;strokeColor=#6c8ebf;" vertex="1" parent="1">
          <mxGeometry x="560" y="306" width="40" height="40" as="geometry" />
        </mxCell>
        <mxCell id="nh4YquugCIlrs4ZJ5E3S-22" value="" style="html=1;shadow=0;dashed=0;align=center;verticalAlign=middle;shape=mxgraph.arrows2.arrow;dy=0.67;dx=20;notch=0;rounded=0;glass=0;labelBackgroundColor=none;sketch=0;fillStyle=solid;strokeWidth=2;fontSize=16;fillColor=#dae8fc;rotation=90;strokeColor=#6c8ebf;" vertex="1" parent="1">
          <mxGeometry x="560" y="427" width="40" height="40" as="geometry" />
        </mxCell>
      </root>
    </mxGraphModel>
  </diagram>
</mxfile>
